{
  "accessors": [
    {
      "bufferView": 2,
      "componentType": 5126,
      "count": 2004,
      "max": [
        125.67400360107422,
        15.122099876403809,
        186.65199279785156
      ],
      "min": [
        -125.56400299072266,
        -125.7249984741211,
        -120.03900146484375
      ],
      "type": "VEC3"
    },
    {
      "bufferView": 2,
      "byteOffset": 24048,
      "componentType": 5126,
      "count": 2004,
      "max": [
        1.0,
        0.9998185038566589,
        1.0
      ],
      "min": [
        -1.0,
        -0.9998244643211365,
        -1.0
      ],
      "type": "VEC3"
    },
    {
      "bufferView": 3,
      "componentType": 5126,
      "count": 2004,
      "max": [
        0.9998956918716431,
        1.0,
        1.0,
        1.0
      ],
      "min": [
        -1.0,
        -1.0,
        -1.0,
        1.0
      ],
      "type": "VEC4"
    },
    {
      "bufferView": 1,
      "componentType": 5126,
      "count": 2004,
      "max": [
        1.0,
        0.9946849942207336
      ],
      "min": [
        0.0,
        0.0
      ],
      "type": "VEC2"
    },
    {
      "bufferView": 0,
      "componentType": 5125,
      "count": 3222,
      "type": "SCALAR"
    },
    {
      "bufferView": 2,
      "byteOffset": 48096,
      "componentType": 5126,
      "count": 1042,
      "max": [
        125.67400360107422,
        15.122099876403809,
        126.2509994506836
      ],
      "min": [
        -124.31199645996094,
        -125.7249984741211,
        -124.44000244140625
      ],
      "type": "VEC3"
    },
    {
      "bufferView": 2,
      "byteOffset": 60600,
      "componentType": 5126,
      "count": 1042,
      "max": [
        1.0,
        0.9999935030937195,
        1.0
      ],
      "min": [
        -1.0,
        -0.9992682337760925,
        -1.0
      ],
      "type": "VEC3"
    },
    {
      "bufferView": 3,
      "byteOffset": 32064,
      "componentType": 5126,
      "count": 1042,
      "max": [
        0.35584989190101624,
        0.9999954104423523,
        1.0,
        1.0
      ],
      "min": [
        -0.9976232647895813,
        -0.998924970626831,
        -1.0,
        1.0
      ],
      "type": "VEC4"
    },
    {
      "bufferView": 1,
      "byteOffset": 16032,
      "componentType": 5126,
      "count": 1042,
      "max": [
        1.0,
        0.9954280257225037
      ],
      "min": [
        0.0,
        0.0
      ],
      "type": "VEC2"
    },
    {
      "bufferView": 0,
      "byteOffset": 12888,
      "componentType": 5125,
      "count": 2154,
      "type": "SCALAR"
    },
    {
      "bufferView": 2,
      "byteOffset": 73104,
      "componentType": 5126,
      "count": 135,
      "max": [
        10.0,
        10.0,
        124.45800018310547
      ],
      "min": [
        -10.0,
        -10.0,
        -125.23500061035156
      ],
      "type": "VEC3"
    },
    {
      "bufferView": 2,
      "byteOffset": 74724,
      "componentType": 5126,
      "count": 135,
      "max": [
        0.7278807759284973,
        0.7278812527656555,
        0.6857144236564636
      ],
      "min": [
        -0.7278807759284973,
        -0.7278812527656555,
        -0.6857144236564636
      ],
      "type": "VEC3"
    },
    {
      "bufferView": 3,
      "byteOffset": 48736,
      "componentType": 5126,
      "count": 135,
      "max": [
        0.9998139142990112,
        0.9998139142990112,
        0.7205012440681458,
        1.0
      ],
      "min": [
        -0.999813973903656,
        -0.9998139142990112,
        -0.7204940915107727,
        1.0
      ],
      "type": "VEC4"
    },
    {
      "bufferView": 1,
      "byteOffset": 24368,
      "componentType": 5126,
      "count": 135,
      "max": [
        0.3051750063896179,
        1.0
      ],
      "min": [
        0.0,
        0.0
      ],
      "type": "VEC2"
    },
    {
      "bufferView": 0,
      "byteOffset": 21504,
      "componentType": 5125,
      "count": 372,
      "type": "SCALAR"
    }
  ],
  "asset": {
    "extras": {
      "author": "wolfgar74 (https://sketchfab.com/wolfgar74)",
      "license": "CC-BY-4.0 (http://creativecommons.org/licenses/by/4.0/)",
      "source": "https://sketchfab.com/3d-models/spiral-stairs-free-54afef59e7bc40dd98f311c3c875b9a3",
      "title": "Spiral Stairs (Free)"
    },
    "generator": "Sketchfab-12.68.0",
    "version": "2.0"
  },
  "bufferViews": [
    {
      "buffer": 0,
      "byteLength": 22992,
      "name": "floatBufferViews",
      "target": 34963
    },
    {
      "buffer": 0,
      "byteLength": 25448,
      "byteOffset": 22992,
      "byteStride": 8,
      "name": "floatBufferViews",
      "target": 34962
    },
    {
      "buffer": 0,
      "byteLength": 76344,
      "byteOffset": 48440,
      "byteStride": 12,
      "name": "floatBufferViews",
      "target": 34962
    },
    {
      "buffer": 0,
      "byteLength": 50896,
      "byteOffset": 124784,
      "byteStride": 16,
      "name": "floatBufferViews",
      "target": 34962
    }
  ],
  "buffers": [
    {
      "byteLength": 175680,
      "uri": "scene.bin"
    }
  ],
  "images": [
    {
      "uri": "textures/MetalRailing_baseColor.png"
    },
    {
      "uri": "textures/MetalRailing_metallicRoughness.png"
    },
    {
      "uri": "textures/MetalRailing_normal.png"
    },
    {
      "uri": "textures/StairsWood_baseColor.png"
    },
    {
      "uri": "textures/StairsWood_metallicRoughness.png"
    },
    {
      "uri": "textures/StairsWood_normal.png"
    },
    {
      "uri": "textures/StoneCylinder_baseColor.png"
    },
    {
      "uri": "textures/StoneCylinder_metallicRoughness.png"
    },
    {
      "uri": "textures/StoneCylinder_normal.png"
    }
  ],
  "materials": [
    {
      "doubleSided": true,
      "name": "MetalRailing",
      "normalTexture": {
        "index": 2
      },
      "occlusionTexture": {
        "index": 1
      },
      "pbrMetallicRoughness": {
        "baseColorTexture": {
          "index": 0
        },
        "metallicRoughnessTexture": {
          "index": 1
        }
      }
    },
    {
      "doubleSided": true,
      "name": "StairsWood",
      "normalTexture": {
        "index": 5
      },
      "occlusionTexture": {
        "index": 4
      },
      "pbrMetallicRoughness": {
        "baseColorTexture": {
          "index": 3
        },
        "metallicRoughnessTexture": {
          "index": 4
        }
      }
    },
    {
      "doubleSided": true,
      "name": "StoneCylinder",
      "normalTexture": {
        "index": 8
      },
      "occlusionTexture": {
        "index": 7
      },
      "pbrMetallicRoughness": {
        "baseColorTexture": {
          "index": 6
        },
        "metallicRoughnessTexture": {
          "index": 7
        }
      }
    }
  ],
  "meshes": [
    {
      "name": "Object_0",
      "primitives": [
        {
          "attributes": {
            "NORMAL": 1,
            "POSITION": 0,
            "TANGENT": 2,
            "TEXCOORD_0": 3
          },
          "indices": 4,
          "material": 0,
          "mode": 4
        }
      ]
    },
    {
      "name": "Object_1",
      "primitives": [
        {
          "attributes": {
            "NORMAL": 6,
            "POSITION": 5,
            "TANGENT": 7,
            "TEXCOORD_0": 8
          },
          "indices": 9,
          "material": 1,
          "mode": 4
        }
      ]
    },
    {
      "name": "Object_2",
      "primitives": [
        {
          "attributes": {
            "NORMAL": 11,
            "POSITION": 10,
            "TANGENT": 12,
            "TEXCOORD_0": 13
          },
          "indices": 14,
          "material": 2,
          "mode": 4
        }
      ]
    }
  ],
  "nodes": [
    {
      "children": [
        1
      ],
      "matrix": [
        1.0,
        0.0,
        0.0,
        0.0,
        0.0,
        2.220446049250313e-16,
        -1.0,
        0.0,
        0.0,
        1.0,
        2.220446049250313e-16,
        0.0,
        0.0,
        0.0,
        0.0,
        1.0
      ],
      "name": "Sketchfab_model"
    },
    {
      "children": [
        2,
        3,
        4
      ],
      "name": "SpiralStairs.obj.cleaner.materialmerger.gles"
    },
    {
      "mesh": 0,
      "name": "Object_2"
    },
    {
      "mesh": 1,
      "name": "Object_3"
    },
    {
      "mesh": 2,
      "name": "Object_4"
    }
  ],
  "samplers": [
    {
      "magFilter": 9729,
      "minFilter": 9987,
      "wrapS": 10497,
      "wrapT": 10497
    }
  ],
  "scene": 0,
  "scenes": [
    {
      "name": "Sketchfab_Scene",
      "nodes": [
        0
      ]
    }
  ],
  "textures": [
    {
      "sampler": 0,
      "source": 0
    },
    {
      "sampler": 0,
      "source": 1
    },
    {
      "sampler": 0,
      "source": 2
    },
    {
      "sampler": 0,
      "source": 3
    },
    {
      "sampler": 0,
      "source": 4
    },
    {
      "sampler": 0,
      "source": 5
    },
    {
      "sampler": 0,
      "source": 6
    },
    {
      "sampler": 0,
      "source": 7
    },
    {
      "sampler": 0,
      "source": 8
    }
  ]
}
